<svg width="145" height="37" viewBox="0 0 145 37" fill="none" xmlns="http://www.w3.org/2000/svg">
<path d="M40.5 27.76V20.44C40.5 18.28 41.58 17.2 43.74 17.2H48.36C50.52 17.2 51.6 18.28 51.6 20.44V27.76C51.6 29.6 50.8133 30.6533 49.24 30.92L50.54 33.48L50.24 34H48.14L46.62 31H43.74C41.58 31 40.5 29.92 40.5 27.76ZM42.94 27.92C42.94 28.5067 43.2333 28.8 43.82 28.8H48.28C48.8667 28.8 49.16 28.5067 49.16 27.92V20.28C49.16 19.6933 48.8667 19.4 48.28 19.4H43.82C43.2333 19.4 42.94 19.6933 42.94 20.28V27.92ZM54.5216 27.84V20.5H56.8616V28.04C56.8616 28.6533 57.1682 28.96 57.7816 28.96H61.1016V20.5H63.4216V31H57.6816C55.5749 31 54.5216 29.9467 54.5216 27.84ZM66.338 31V21.8C66.818 20.9333 67.738 20.5 69.098 20.5H71.198L72.238 21.28V22.52H69.498C69.1113 22.52 68.838 22.62 68.678 22.82V31H66.338ZM74.21 18.72V16.36H76.63V18.72H74.21ZM74.25 31V20.5H76.59V31H74.25ZM82.1625 31C80.0558 31 79.0025 29.96 79.0025 27.88C79.0025 25.8 80.0558 24.76 82.1625 24.76H85.2625V23.46C85.2625 22.8333 84.9492 22.52 84.3225 22.52H80.0825V21.28L81.1225 20.5H84.4425C86.5358 20.5 87.5825 21.5533 87.5825 23.66V31H82.1625ZM81.3425 28.04C81.3425 28.6533 81.6492 28.96 82.2625 28.96H85.2625V26.64H82.2625C81.6492 26.64 81.3425 26.9467 81.3425 27.56V28.04ZM90.42 31V21.8C90.9 20.9333 91.82 20.5 93.18 20.5H95.28L96.32 21.28V22.52H93.58C93.1933 22.52 92.92 22.62 92.76 22.82V31H90.42ZM98.332 31V16.2H100.672V20.5H104.092C106.185 20.5 107.232 21.5533 107.232 23.66V27.84C107.232 29.9467 106.185 31 104.092 31H98.332ZM100.672 28.96H103.972C104.599 28.96 104.912 28.6533 104.912 28.04V23.46C104.912 22.8333 104.599 22.52 103.972 22.52H100.672V28.96ZM109.91 27.84V23.66C109.91 21.5533 110.964 20.5 113.07 20.5H115.87C117.964 20.5 119.01 21.5533 119.01 23.66V27.84C119.01 29.9467 117.964 31 115.87 31H113.07C110.964 31 109.91 29.9467 109.91 27.84ZM112.25 28.04C112.25 28.6533 112.557 28.96 113.17 28.96H115.75C116.377 28.96 116.69 28.6533 116.69 28.04V23.46C116.69 22.8333 116.377 22.52 115.75 22.52H113.17C112.557 22.52 112.25 22.8333 112.25 23.46V28.04ZM120.928 30.6L124.468 25.68L121.028 20.9L121.228 20.5H123.368L125.768 23.94L128.168 20.5H130.328L130.508 20.9L127.088 25.68L130.628 30.6L130.428 31H128.288L125.768 27.42L123.268 31H121.108L120.928 30.6Z" fill="#F95C19"/>
<path d="M18.5772 36.0748L31.7843 26.9561C32.5883 26.4 33.0372 25.5018 33.0502 24.5846L33.1986 15.6175C33.2197 14.341 32.4417 13.1924 31.2565 12.7505L22.9304 9.64593C22.0795 9.32635 21.0885 9.42425 20.2846 9.9804L7.09391 19.1233L18.6431 23.5815L18.5772 36.0748Z" fill="#F95C19"/>
<path d="M20.5266 9.74239L7.24176 18.9147C6.4331 19.4741 5.98158 20.3776 5.96846 21.3002L5.81896 30.3326C5.79783 31.6091 6.5759 32.7576 7.76111 33.1996L16.1478 36.3267C17.0037 36.6482 18.0005 36.5497 18.8092 35.9903L32.0774 26.7936L22.382 23.051C21.2251 22.6044 20.4647 21.4818 20.4713 20.2304L20.5266 9.74239Z" fill="#CA3E02"/>
</svg>
