<svg width="50" height="35" viewBox="0 0 50 35" fill="none" xmlns="http://www.w3.org/2000/svg">
<path d="M47.3878 15.1672C46.4052 15.8995 45.1838 16.3335 43.8602 16.3335H6.23322C4.90969 16.3335 3.6883 15.8995 2.70569 15.1672V26.8335C2.70569 30.0551 5.33791 32.6668 8.58491 32.6668H41.5085C44.7555 32.6668 47.3878 30.0551 47.3878 26.8335V15.1672ZM3.88154 0.00012207H46.2119C48.1601 0.00012207 49.7394 1.56713 49.7394 3.50012V26.8335C49.7394 31.3438 46.0543 35.0001 41.5085 35.0001H8.58491C4.03911 35.0001 0.354004 31.3438 0.354004 26.8335V3.50012C0.354004 1.56713 1.93333 0.00012207 3.88154 0.00012207ZM3.88154 2.33346C3.23214 2.33346 2.70569 2.85579 2.70569 3.50012V10.5001C2.70569 12.4331 4.28502 14.0001 6.23322 14.0001H43.8602C45.8084 14.0001 47.3878 12.4331 47.3878 10.5001V3.50012C47.3878 2.85579 46.8613 2.33346 46.2119 2.33346H3.88154Z" fill="#222132"/>
</svg>
