<svg width="50" height="33" viewBox="0 0 50 33" fill="none" xmlns="http://www.w3.org/2000/svg">
<path d="M7.57379 32.9412H3.92865C1.98045 32.9412 0.401123 31.361 0.401123 29.4118V27.0588C0.401123 25.1096 1.98045 23.5294 3.92865 23.5294H28.835C28.6968 23.1454 28.6214 22.7307 28.6214 22.2981V8.89787C28.6159 9.20023 28.5692 9.50602 28.4781 9.80883L25.9586 18.1817C25.5055 19.6873 24.0706 20.7301 22.4169 20.8185L15.7918 21.1726C15.589 21.191 15.3778 21.1568 15.1778 21.0606L2.49017 14.9607C0.907013 14.2288 0.0838774 12.3971 0.514839 10.6564L2.472 2.75154C2.90323 1.0098 4.4735 -0.162231 6.19455 0.0183145L20.3651 0.000275433C20.6676 -0.00624685 20.9725 0.103309 21.2073 0.330209L26.9422 5.87156C27.9835 6.53885 28.6007 7.62718 28.6214 8.77812V5.9372C28.6214 3.95767 30.2007 2.35294 32.1489 2.35294C32.3158 2.35294 32.4825 2.36498 32.6478 2.38896L44.8599 4.16161C46.2798 4.36771 47.4354 5.42675 47.7833 6.84054L49.6812 14.5544C49.7512 14.8387 49.7866 15.1307 49.7866 15.4238V22.2981C49.7866 23.2205 49.4436 24.0616 48.8802 24.6968C49.4436 25.3223 49.7866 26.1505 49.7866 27.0588V29.4118C49.7866 31.361 48.2072 32.9412 46.259 32.9412H44.9656C44.7892 32.0719 44.4213 31.2723 43.9078 30.5882L43.9106 30.5882H46.259C46.9084 30.5882 47.4349 30.0615 47.4349 29.4118V27.0588C47.4349 26.4091 46.9084 25.8824 46.259 25.8824H3.92865C3.27925 25.8824 2.75281 26.4091 2.75281 27.0588V29.4118C2.75281 30.0615 3.27925 30.5882 3.92865 30.5882H8.12273C8.28011 30.5882 8.43028 30.6192 8.56747 30.6753C8.08743 31.3398 7.74272 32.1085 7.57379 32.9412ZM18.08 30.6432C18.1924 30.6075 18.3121 30.5882 18.4363 30.5882H34.4967H34.5002C33.9867 31.2723 33.6187 32.0719 33.4424 32.9412H19.097C18.9254 32.0951 18.5722 31.315 18.08 30.6432ZM21.0376 3.43728L17.2139 18.7402L22.2914 18.4689C22.9885 18.4316 23.5503 18.0233 23.7067 17.5034L26.2262 9.1305C26.3704 8.65151 26.1483 8.13051 25.6214 7.82069L25.4002 7.65264L21.0376 3.43728ZM32.1489 4.74244C31.4995 4.74244 30.9731 5.27735 30.9731 5.9372V22.2981C30.9731 22.9579 31.4995 23.4928 32.1489 23.4928H46.259C46.9084 23.4928 47.4349 22.9579 47.4349 22.2981V15.4238C47.4349 15.3261 47.4231 15.2288 47.3998 15.134L45.5018 7.42008C45.3859 6.94881 45.0006 6.5958 44.5274 6.5271L32.3152 4.75445C32.2601 4.74646 32.2045 4.74244 32.1489 4.74244ZM6.12868 2.37134L5.97524 2.36148C5.44087 2.2918 4.91294 2.67812 4.75469 3.31731L2.79753 11.2222C2.63195 11.891 2.9401 12.5767 3.49262 12.8323L14.8962 18.3148L18.884 2.3551L6.12868 2.37134Z" fill="#222132"/>
</svg>
