<svg width="21" height="25" viewBox="0 0 21 25" fill="none" xmlns="http://www.w3.org/2000/svg">
<path d="M10.5 13.625C12.364 13.625 13.875 12.114 13.875 10.25C13.875 8.38604 12.364 6.875 10.5 6.875C8.63604 6.875 7.125 8.38604 7.125 10.25C7.125 12.114 8.63604 13.625 10.5 13.625Z" stroke="#FFAF0F" stroke-width="2" stroke-linecap="round" stroke-linejoin="round"/>
<path d="M10.5 1.25C8.11305 1.25 5.82387 2.19821 4.13604 3.88604C2.44821 5.57387 1.5 7.86305 1.5 10.25C1.5 12.3785 1.95225 13.7712 3.1875 15.3125L10.5 23.75L17.8125 15.3125C19.0478 13.7712 19.5 12.3785 19.5 10.25C19.5 7.86305 18.5518 5.57387 16.864 3.88604C15.1761 2.19821 12.8869 1.25 10.5 1.25V1.25Z" stroke="#FFAF0F" stroke-width="2" stroke-linecap="round" stroke-linejoin="round"/>
</svg>
