<svg width="738" height="568" viewBox="0 0 738 568" fill="none" xmlns="http://www.w3.org/2000/svg">
<g clip-path="url(#clip0_676_245)">
<path d="M90.6152 192.663V293.125H22.5881V0H134.484C169.235 0 196.804 8.85818 217.201 26.5745C237.589 44.2909 247.791 67.5805 247.791 96.4354C247.791 125.29 237.589 148.548 217.201 166.193C196.804 183.845 169.235 192.663 134.484 192.663H90.6152ZM90.6152 140.32H134.484C149.237 140.32 160.507 136.261 168.294 128.137C176.073 120.02 179.963 109.583 179.963 96.834C179.963 84.0849 176.105 73.1458 168.39 64.8218C160.675 56.5058 149.373 52.3438 134.476 52.3438H90.6072V140.32H90.6152Z" fill="black"/>
<path d="M301.583 292.982C299.742 289.689 298.171 285.965 296.864 281.803C295.557 277.641 294.561 273.288 293.891 268.735C289.635 277.059 284.383 283.717 278.142 288.7C271.901 293.683 263.747 296.179 253.681 296.179C237.23 296.179 224.43 291.945 215.288 283.47C206.146 275.002 201.571 263.457 201.571 248.834C201.571 233.247 207.421 221.223 219.137 212.748C230.846 204.28 248.604 200.039 272.411 200.039H292.592V188.86C292.592 182.179 290.998 177.052 287.802 173.464C284.606 169.884 279.72 168.09 273.136 168.09C267.422 168.09 263.189 169.422 260.432 172.085C257.674 174.748 256.295 178.886 256.295 184.499L208.68 184.355L208.393 183.486C207.716 169.159 213.693 157.183 226.319 147.543C238.952 137.912 255.618 133.096 276.325 133.096C295.78 133.096 311.53 137.936 323.573 147.615C335.624 157.295 341.65 171.144 341.65 189.147V248.396C341.65 256.72 342.351 264.47 343.754 271.63C345.157 278.798 347.261 285.957 350.066 293.125L301.583 292.982ZM267.031 261.177C273.033 261.177 278.325 259.774 282.924 256.967C287.523 254.16 290.735 250.82 292.576 246.945V226.183H272.834C264.991 226.183 259.332 228.072 255.849 231.844C252.366 235.615 250.62 240.415 250.62 246.219C250.62 250.676 252.143 254.28 255.195 257.039C258.248 259.797 262.185 261.177 267.023 261.177H267.031Z" fill="black"/>
<path d="M441.303 177.825L425.339 177.682C419.728 177.682 415.129 178.726 411.55 180.807C407.971 182.888 405.309 185.814 403.564 189.594V293.133H354.498V136.014H400.662L402.408 159.104C405.7 150.876 410.052 144.49 415.471 139.937C420.891 135.384 427.228 133.112 434.489 133.112C436.712 133.112 438.697 133.255 440.442 133.55C442.188 133.845 444.021 134.276 445.958 134.858L441.311 177.841L441.303 177.825Z" fill="black"/>
<path d="M0 279.38C0 339.449 0 399.519 0 459.589C0 461.176 0.597777 463.631 1.33902 465.043C1.60204 465.553 1.41075 466.406 1.69769 466.876C2.54255 468.264 3.4432 469.635 4.47935 470.831C5.06118 471.501 6.03357 471.692 6.69511 472.298C8.49641 473.957 10.5687 474.547 12.7048 474.905C13.9163 475.113 15.1517 475.192 16.3791 475.192C192.046 475.192 367.705 475.192 543.372 475.192H546.289C546.289 476.452 546.289 477.369 546.289 478.286C546.289 501.823 546.297 525.36 546.281 548.896C546.281 553.002 546.679 556.981 548.991 560.258C550.489 562.387 552.02 564.675 553.948 566.142C555.495 567.314 557.655 567.458 559.567 567.88C561.273 568.247 562.843 567.673 564.382 566.684C565.824 565.752 567.442 565.177 568.972 564.436C569.06 564.396 569.092 564.197 569.164 564.093C570.288 562.65 571.348 561.127 572.559 559.788C573.842 558.368 575.277 557.133 576.608 555.785C578.68 553.688 580.721 551.551 582.777 549.43C584.021 548.139 585.304 546.895 586.499 545.54C587.743 544.128 588.851 542.574 590.094 541.162C591.289 539.807 592.605 538.595 593.8 537.24C595.522 535.302 597.108 533.197 598.893 531.347C601.38 528.772 604.026 526.42 606.537 523.884C608.011 522.394 609.374 520.735 610.753 519.117C611.407 518.343 611.949 517.434 612.602 516.661C613.766 515.289 614.914 513.894 616.181 512.674C617.679 511.231 619.393 510.091 620.844 508.6C622.844 506.535 624.709 504.286 626.598 502.07C627.292 501.257 627.794 500.22 628.511 499.439C629.755 498.083 631.117 496.879 632.401 495.572C633.899 494.041 635.374 492.478 636.84 490.907C638.044 489.616 639.207 488.276 640.411 486.993C642.132 485.159 643.91 483.405 645.584 481.515C646.787 480.16 647.775 478.517 649.019 477.226C651.011 475.153 653.235 473.382 655.18 471.262C657.914 468.272 660.417 465.011 663.126 461.997C664.84 460.091 666.785 458.457 668.578 456.631C670.842 454.335 673.057 451.967 675.305 449.638C676.413 448.49 677.553 447.39 678.629 446.202C680.071 444.607 681.474 442.957 682.885 441.322C683.475 440.637 684.049 439.919 684.638 439.233C686.352 437.248 688.002 435.175 689.811 433.301C691.74 431.308 693.916 429.626 695.805 427.577C697.558 425.679 699.001 423.383 700.739 421.453C702.954 418.99 705.33 416.741 707.625 414.373C709.251 412.699 710.869 411.008 712.439 409.27C714.224 407.293 715.946 405.26 717.7 403.243C718.791 401.991 719.828 400.667 720.967 399.487C722.259 398.148 723.693 397 724.984 395.66C727.049 393.507 728.858 390.924 731.13 389.146C733.529 387.272 734.469 384.195 736.326 381.906C737.243 380.774 737.339 378.701 737.753 377.043C738.566 373.742 737.115 370.864 736.478 367.826C736.039 366.893 735.362 365.442 734.931 364.509C733.943 363.193 732.955 361.87 731.887 360.634C729.52 357.891 727.057 355.252 724.602 352.613C723.877 351.832 723.024 351.226 722.251 350.508C720.76 349.113 719.246 347.749 717.827 346.266C716.504 344.895 715.284 343.388 714.017 341.937C712.83 340.574 711.626 339.218 710.454 337.831C709.307 336.483 708.374 334.634 706.995 333.844C704.261 332.273 702.556 329.499 700.412 327.242C699.129 325.887 697.742 324.659 696.498 323.248C695.287 321.876 694.243 320.314 693.063 318.918C692.378 318.113 691.557 317.459 690.792 316.742C689.261 315.299 687.675 313.919 686.209 312.388C684.965 311.089 683.913 309.558 682.694 308.226C680.948 306.321 679.131 304.503 677.346 302.653C675.839 301.09 674.341 299.512 672.834 297.965C671.511 296.61 670.132 295.342 668.857 293.923C667.669 292.607 666.657 291.068 665.462 289.769C664.194 288.397 662.584 287.401 661.508 285.87C660.154 283.948 658.599 282.425 656.902 280.982C655.531 279.818 654.279 278.439 653.012 277.107C651.649 275.672 650.318 274.189 648.987 272.698C647.847 271.414 646.747 270.067 645.6 268.791C644.292 267.324 642.985 265.841 641.606 264.47C640.164 263.043 638.522 261.87 637.167 260.34C635.007 257.892 633.062 255.173 630.918 252.701C629.659 251.25 628.152 250.11 626.821 248.731C624.789 246.626 622.844 244.409 620.82 242.288C618.572 239.928 616.261 237.664 614.021 235.296C612.586 233.773 611.247 232.123 609.837 230.56C608.808 229.428 607.74 228.359 606.688 227.259C605.58 226.095 604.472 224.931 603.349 223.783C602.113 222.515 600.79 221.343 599.627 219.995C598.415 218.592 597.435 216.902 596.183 215.538C594.557 213.768 592.772 212.198 591.058 210.539C589.783 209.303 588.484 208.084 587.233 206.816C586.053 205.612 584.897 204.368 583.758 203.108C582.881 202.136 582.052 201.099 581.183 200.126C580.051 198.867 578.896 197.623 577.74 196.387C575.747 194.25 573.866 191.946 571.714 190.056C570.16 188.685 569.052 186.652 566.964 185.99C565.203 185.432 563.569 183.59 561.887 183.606C559.854 183.614 557.83 184.244 555.805 184.826C554.498 185.201 553.295 185.886 552.306 186.819C551.812 187.29 551.326 187.768 550.88 188.294C549.788 189.586 548.345 190.814 547.883 192.408C547.03 195.319 546.377 198.476 546.361 201.53C546.233 222.611 546.297 243.692 546.297 264.773C546.297 265.682 546.297 266.599 546.297 267.675H543.451C367.761 267.675 192.078 267.675 16.3871 267.675C15.3669 267.675 14.3546 267.691 13.3344 267.715C13.3344 267.715 0.00797036 267.675 0.00797036 279.356L0 279.38Z" fill="#FFDE6A"/>
<path d="M505.496 205.165H496.641V267.611H447.576V41.0777H496.641V168.138H503.607L536.708 110.484H592.883L544.543 181.35L600.87 267.611H544.982L505.496 205.165Z" fill="black"/>
<path d="M129.853 385.12V442.032H91.3164V275.975H154.705C174.392 275.975 190.013 280.99 201.563 291.028C213.112 301.067 218.89 314.262 218.89 330.607C218.89 346.952 213.112 360.132 201.563 370.122C190.005 380.12 174.392 385.12 154.705 385.12H129.853ZM129.853 355.467H154.705C163.066 355.467 169.45 353.171 173.858 348.571C178.265 343.97 180.473 338.062 180.473 330.838C180.473 323.615 178.289 317.42 173.913 312.707C169.546 307.995 163.137 305.635 154.705 305.635H129.853V355.475V355.467Z" fill="black"/>
<path d="M307.943 441.92C306.5 439.337 305.265 436.411 304.237 433.142C303.208 429.873 302.427 426.452 301.901 422.881C298.554 429.418 294.433 434.649 289.531 438.564C284.63 442.479 278.221 444.44 270.323 444.44C257.403 444.44 247.352 441.115 240.163 434.458C232.982 427.808 229.387 418.742 229.387 407.253C229.387 395.014 233.986 385.566 243.184 378.909C252.381 372.259 266.33 368.926 285.028 368.926H300.873V360.148C300.873 354.901 299.622 350.875 297.111 348.06C294.6 345.246 290.767 343.843 285.594 343.843C281.107 343.843 277.783 344.887 275.615 346.976C273.447 349.065 272.363 352.318 272.363 356.727L234.966 356.616L234.735 355.93C234.201 344.68 238.896 335.271 248.819 327.705C258.734 320.138 271.829 316.359 288.097 316.359C303.376 316.359 315.746 320.162 325.207 327.761C334.668 335.367 339.402 346.234 339.402 360.379V406.91C339.402 413.448 339.952 419.532 341.052 425.161C342.152 430.79 343.81 436.419 346.009 442.04L307.927 441.928L307.943 441.92ZM280.812 416.94C285.522 416.94 289.683 415.84 293.293 413.632C296.904 411.431 299.431 408.808 300.873 405.762V389.449H285.371C279.218 389.449 274.77 390.932 272.028 393.898C269.287 396.864 267.924 400.627 267.924 405.188C267.924 408.688 269.119 411.519 271.518 413.687C273.909 415.856 277.01 416.94 280.812 416.94Z" fill="black"/>
<path d="M424.804 407.357C424.804 404.319 423.075 401.6 419.616 399.2C416.157 396.808 409.868 394.656 400.75 392.758C386.387 389.943 375.556 385.59 368.255 379.698C360.962 373.806 357.311 365.689 357.311 355.348C357.311 344.472 361.87 335.255 370.997 327.689C380.115 320.122 392.469 316.343 408.051 316.343C424.47 316.343 437.541 320.011 447.273 327.346C457.005 334.681 461.635 344.169 461.181 355.802L460.95 356.488H423.553C423.553 351.624 422.334 347.933 419.903 345.421C417.472 342.91 413.479 341.658 407.931 341.658C403.898 341.658 400.519 342.758 397.785 344.967C395.051 347.175 393.68 349.982 393.68 353.41C393.68 356.839 395.258 359.454 398.415 361.734C401.571 364.015 407.931 366.072 417.512 367.89C432.639 370.856 443.806 375.289 451.035 381.173C458.256 387.065 461.867 395.413 461.867 406.209C461.867 417.004 456.941 426.452 447.106 433.636C437.262 440.82 424.247 444.416 408.059 444.416C391.871 444.416 377.979 440.158 368.215 431.643C358.451 423.128 353.788 413.624 354.251 403.131L354.482 402.445H389.368C389.52 408.298 391.289 412.523 394.668 415.107C398.048 417.69 402.854 418.982 409.095 418.982C414.26 418.982 418.173 417.977 420.835 415.96C423.497 413.943 424.828 411.072 424.828 407.349L424.804 407.357Z" fill="black"/>
<path d="M544.288 407.357C544.288 404.319 542.559 401.6 539.099 399.2C535.64 396.808 529.352 394.656 520.234 392.758C505.871 389.943 495.039 385.59 487.738 379.698C480.445 373.806 476.795 365.689 476.795 355.348C476.795 344.472 481.354 335.255 490.48 327.689C499.598 320.122 511.952 316.343 527.534 316.343C543.953 316.343 557.025 320.011 566.757 327.346C576.488 334.681 581.119 344.169 580.665 355.802L580.434 356.488H543.037C543.037 351.624 541.817 347.933 539.386 345.421C536.955 342.91 532.962 341.658 527.415 341.658C523.382 341.658 520.002 342.758 517.269 344.967C514.535 347.175 513.164 349.982 513.164 353.41C513.164 356.839 514.742 359.454 517.898 361.734C521.054 364.015 527.415 366.072 536.995 367.89C552.123 370.856 563.289 375.289 570.519 381.173C577.74 387.065 581.35 395.413 581.35 406.209C581.35 417.004 576.425 426.452 566.589 433.636C556.746 440.82 543.73 444.416 527.542 444.416C511.355 444.416 497.462 440.158 487.698 431.643C477.935 423.128 473.272 413.624 473.734 403.131L473.966 402.445H508.852C509.003 408.298 510.773 412.523 514.152 415.107C517.532 417.69 522.338 418.982 528.578 418.982C533.743 418.982 537.657 417.977 540.319 415.96C542.981 413.943 544.312 411.072 544.312 407.349L544.288 407.357Z" fill="black"/>
<path d="M607.493 317.89C607.127 317.85 606.776 317.786 606.425 317.691C604.656 317.228 603.253 316.144 602.488 314.629C601.436 312.572 602.002 310.539 604.249 308.043C601.906 308.537 599.898 308.649 598.399 308.25C596.694 307.788 595.37 306.775 594.669 305.404C593.744 303.594 593.426 302.948 600.647 296.219C596.136 297.798 592.182 298.595 589.664 297.917C587.95 297.455 586.619 296.434 585.918 295.055C584.555 292.376 585.79 291.475 592.629 286.484C596.167 283.9 604.289 277.968 608.139 274.165C602.751 275.8 592.732 280.759 583.447 286.555C582.474 287.161 581.239 287.345 580.067 287.042C578.904 286.747 577.931 286.005 577.437 285.025C576.72 283.613 575.301 280.831 584.953 272.1C581.422 273.575 577.772 275.13 574.337 276.645C572.511 277.45 570.248 276.876 569.124 275.321C568 273.766 568.375 271.749 570.001 270.673C578.633 264.932 588.261 257.605 591.584 253.945C587.081 254.663 576.544 260.252 567.299 267.021C566.342 267.715 565.059 267.978 563.832 267.699C562.604 267.428 561.576 266.67 561.05 265.65C560.476 264.518 560.014 263.617 562.182 260.906C561.217 260.962 560.293 260.914 559.416 260.746C556.475 260.204 554.14 258.498 552.849 255.954C550.306 250.955 557.288 245.278 569.108 236.532C569.315 236.38 569.523 236.229 569.73 236.069C566.486 237.425 562.333 239.641 558.037 242.344C555.399 244.274 552.769 246.028 550.465 247.503C548.752 248.603 546.313 248.276 544.958 246.777C543.603 245.27 543.81 243.134 545.436 241.93C546.927 240.821 549.469 239.003 552.546 237.026C554.482 235.591 556.3 234.156 557.926 232.784C549.931 236.468 542.463 239.051 538.845 238.047C537.322 237.616 536.143 236.699 535.521 235.471C534.796 234.052 535.194 232.41 536.509 231.421C541.164 227.913 546.106 223.807 549.868 220.298L532.006 226.948C530.3 227.586 528.284 227.076 527.16 225.728C526.036 224.381 526.108 222.555 527.327 221.343C532.572 216.12 538.143 210.452 542.009 206.377C538.159 208.259 533.616 211.01 531.344 212.389C525.231 216.089 523.175 217.332 520.608 216.663C519.453 216.36 518.345 215.507 517.851 214.542C517.165 213.194 517.484 211.648 518.656 210.643C524.291 205.811 530.412 199.975 533.911 196.028C529.814 197.702 523.972 200.7 518.576 204.001C516.791 205.094 514.296 204.679 512.997 203.076C511.705 201.474 512.096 199.289 513.881 198.197C522.92 192.671 534.883 186.381 540.558 187.848C542.248 188.286 543.563 189.283 544.256 190.654C544.83 191.786 545.691 193.477 541.81 198.564C544.862 197.463 547.508 197.073 549.812 197.671C551.757 198.181 553.287 199.369 554.132 201.019C555.112 202.949 555.471 203.635 544.974 214.406L558.324 209.431C559.289 209.072 560.388 209.072 561.377 209.423C562.373 209.774 563.17 210.46 563.608 211.321C564.318 212.716 565.936 215.897 554.873 226.095C558.898 224.213 563.234 222.021 567.163 219.868C568.144 219.334 569.347 219.206 570.463 219.525C571.579 219.844 572.503 220.562 572.982 221.51C573.954 223.416 573.651 225.593 572.503 227.889C574.193 227.618 575.763 227.594 577.142 227.889C579.549 228.415 581.438 229.802 582.458 231.804C583.981 234.794 581.749 236.452 574.337 241.938C570.575 244.728 562.054 251.035 560.492 253.746C560.604 253.826 560.715 253.841 560.827 253.865C564.613 254.543 574.95 248.5 583.088 241.922C583.71 241.403 584.355 240.869 585.009 240.327C586.579 239.027 589.09 239.115 590.636 240.526C592.174 241.938 592.166 244.146 590.62 245.47C590.214 245.821 589.608 246.331 588.835 246.961C588.612 247.144 588.388 247.335 588.165 247.519C590.636 246.905 592.916 246.706 594.844 247.128C597.267 247.662 599.156 249.058 600.177 251.059C600.846 252.366 601.85 254.344 596.574 259.718C603.683 257.27 604.967 257.693 605.947 258.011C606.991 258.354 608.003 259.168 608.458 260.061C609.199 261.52 608.753 263.21 607.366 264.183C605.046 265.809 602.655 267.555 600.344 269.317C605.493 267.26 610.283 266.04 613.407 266.846C615.336 267.332 616.835 268.464 617.632 270.027C619.584 273.854 616.085 278.064 605.222 286.396C609.972 284.171 615.424 281.341 620.764 278.247C622.454 277.275 624.749 277.594 626.072 279.005C627.395 280.416 627.324 282.441 625.905 283.701C620.628 288.381 613.925 294.401 608.896 299.002C614.993 296.474 623.115 292.384 630.097 288.373C631.07 287.815 632.289 287.664 633.429 287.975C634.569 288.286 635.501 289.019 635.987 289.976C637.613 293.173 635.342 294.696 625.769 301.098C623.928 302.334 621.33 304.072 618.763 305.874C620.118 305.077 621.41 304.296 622.517 303.626C631.707 298.077 636.697 295.222 640.786 296.299C642.372 296.713 643.615 297.678 644.3 299.017C645.209 300.803 644.324 302.861 642.316 303.61C641.041 304.088 639.622 303.921 638.522 303.275C636.075 304.072 630.799 307.262 627.172 309.454C618.11 314.924 612.1 318.376 607.461 317.858L607.493 317.89Z" fill="#FFDE6A"/>
</g>
<defs>
<clipPath id="clip0_676_245">
<rect width="738" height="568" fill="white"/>
</clipPath>
</defs>
</svg>
