<svg width="460" height="354" viewBox="0 0 460 354" fill="none" xmlns="http://www.w3.org/2000/svg">
<g clip-path="url(#clip0_676_229)">
<path d="M56.4809 120.075V182.687H14.0792V0H83.8247C105.485 0 122.669 5.52077 135.382 16.5623C148.09 27.6038 154.449 42.1188 154.449 60.1023C154.449 78.0858 148.09 92.5809 135.382 103.578C122.669 114.58 105.485 120.075 83.8247 120.075H56.4809ZM56.4809 87.4527H83.8247C93.0204 87.4527 100.045 84.9234 104.899 79.8598C109.748 74.8012 112.172 68.2965 112.172 60.3508C112.172 52.4051 109.767 45.5873 104.958 40.3995C100.149 35.2166 93.1049 32.6227 83.8197 32.6227H56.4759V87.4527H56.4809Z" fill="black"/>
<path d="M187.978 182.598C186.831 180.546 185.852 178.225 185.037 175.631C184.223 173.037 183.602 170.324 183.184 167.486C180.531 172.674 177.257 176.824 173.368 179.929C169.478 183.035 164.395 184.59 158.121 184.59C147.867 184.59 139.888 181.952 134.19 176.67C128.492 171.392 125.64 164.197 125.64 155.083C125.64 145.369 129.287 137.875 136.59 132.593C143.888 127.316 154.956 124.672 169.796 124.672H182.374V117.705C182.374 113.541 181.381 110.346 179.389 108.11C177.397 105.878 174.351 104.76 170.248 104.76C166.686 104.76 164.048 105.59 162.329 107.25C160.61 108.91 159.75 111.489 159.75 114.987L130.072 114.898L129.893 114.356C129.47 105.426 133.196 97.9626 141.066 91.9548C148.94 85.952 159.328 82.9507 172.235 82.9507C184.362 82.9507 194.178 85.967 201.685 91.9995C209.197 98.0321 212.952 106.664 212.952 117.884V154.81C212.952 159.998 213.39 164.828 214.264 169.29C215.138 173.758 216.45 178.22 218.199 182.687L187.978 182.598ZM166.442 162.776C170.183 162.776 173.482 161.901 176.348 160.152C179.215 158.403 181.217 156.321 182.365 153.906V140.966H170.059C165.17 140.966 161.643 142.144 159.472 144.494C157.301 146.844 156.213 149.836 156.213 153.453C156.213 156.231 157.162 158.477 159.065 160.197C160.967 161.916 163.422 162.776 166.437 162.776H166.442Z" fill="black"/>
<path d="M275.067 110.828L265.116 110.738C261.619 110.738 258.752 111.389 256.521 112.686C254.291 113.983 252.632 115.807 251.544 118.162V182.692H220.961V84.7694H249.735L250.823 99.1602C252.875 94.0319 255.588 90.0516 258.966 87.2142C262.344 84.3768 266.294 82.9606 270.819 82.9606C272.205 82.9606 273.442 83.05 274.53 83.2339C275.618 83.4178 276.761 83.6861 277.968 84.0488L275.072 110.838L275.067 110.828Z" fill="black"/>
<path d="M0 174.12C0 211.558 0 248.996 0 286.434C0 287.423 0.372598 288.953 0.83462 289.833C0.998564 290.151 0.879332 290.683 1.05818 290.976C1.58479 291.84 2.14617 292.695 2.792 293.441C3.15467 293.858 3.76076 293.977 4.1731 294.355C5.29586 295.388 6.58754 295.756 7.91896 295.98C8.67409 296.109 9.44413 296.159 10.2092 296.159C119.703 296.159 229.193 296.159 338.687 296.159H340.505C340.505 296.944 340.505 297.515 340.505 298.087C340.505 312.756 340.51 327.425 340.5 342.094C340.5 344.653 340.749 347.133 342.189 349.175C343.123 350.502 344.077 351.928 345.279 352.842C346.243 353.573 347.59 353.662 348.782 353.925C349.845 354.154 350.824 353.796 351.783 353.18C352.682 352.599 353.69 352.241 354.644 351.779C354.699 351.754 354.719 351.63 354.763 351.565C355.464 350.666 356.125 349.717 356.88 348.882C357.68 347.997 358.574 347.227 359.403 346.387C360.695 345.08 361.967 343.749 363.249 342.427C364.024 341.622 364.823 340.847 365.569 340.002C366.344 339.122 367.034 338.153 367.809 337.274C368.554 336.429 369.374 335.674 370.119 334.829C371.192 333.621 372.181 332.309 373.294 331.157C374.844 329.552 376.493 328.086 378.058 326.505C378.977 325.576 379.827 324.543 380.686 323.534C381.094 323.052 381.431 322.485 381.839 322.003C382.564 321.149 383.28 320.279 384.069 319.519C385.003 318.619 386.072 317.909 386.976 316.98C388.223 315.693 389.385 314.291 390.563 312.91C390.995 312.403 391.308 311.757 391.755 311.27C392.53 310.425 393.379 309.675 394.179 308.86C395.113 307.906 396.032 306.932 396.946 305.953C397.697 305.148 398.422 304.313 399.172 303.513C400.245 302.37 401.353 301.277 402.396 300.099C403.146 299.254 403.762 298.231 404.538 297.426C405.779 296.134 407.166 295.031 408.378 293.709C410.082 291.845 411.642 289.813 413.331 287.935C414.399 286.747 415.611 285.728 416.729 284.59C418.14 283.159 419.521 281.683 420.922 280.232C421.612 279.517 422.323 278.831 422.994 278.091C423.893 277.097 424.767 276.068 425.646 275.05C426.014 274.622 426.372 274.175 426.739 273.748C427.807 272.51 428.836 271.218 429.964 270.051C431.166 268.808 432.522 267.76 433.7 266.483C434.792 265.3 435.692 263.869 436.775 262.666C438.156 261.131 439.636 259.73 441.067 258.254C442.081 257.21 443.089 256.157 444.068 255.073C445.181 253.841 446.254 252.574 447.347 251.317C448.027 250.537 448.673 249.712 449.383 248.976C450.188 248.141 451.082 247.426 451.887 246.591C453.174 245.249 454.302 243.639 455.718 242.531C457.213 241.363 457.799 239.445 458.957 238.019C459.528 237.314 459.588 236.022 459.846 234.988C460.353 232.931 459.449 231.137 459.051 229.244C458.778 228.662 458.356 227.758 458.087 227.176C457.471 226.356 456.855 225.532 456.19 224.761C454.714 223.052 453.179 221.407 451.649 219.762C451.197 219.275 450.665 218.898 450.183 218.45C449.254 217.581 448.31 216.731 447.426 215.807C446.601 214.952 445.841 214.013 445.051 213.109C444.311 212.259 443.561 211.414 442.831 210.549C442.115 209.71 441.534 208.557 440.675 208.065C438.971 207.086 437.907 205.357 436.571 203.95C435.771 203.106 434.907 202.34 434.132 201.461C433.377 200.606 432.726 199.632 431.991 198.763C431.563 198.261 431.052 197.853 430.575 197.406C429.621 196.507 428.632 195.647 427.718 194.693C426.943 193.883 426.287 192.929 425.527 192.099C424.439 190.911 423.307 189.778 422.194 188.625C421.255 187.651 420.321 186.668 419.382 185.704C418.557 184.859 417.698 184.069 416.903 183.184C416.163 182.364 415.532 181.405 414.786 180.595C413.997 179.741 412.993 179.119 412.322 178.165C411.478 176.968 410.509 176.019 409.451 175.119C408.596 174.394 407.816 173.534 407.026 172.704C406.177 171.81 405.347 170.885 404.518 169.956C403.807 169.156 403.122 168.316 402.406 167.521C401.591 166.607 400.777 165.683 399.917 164.828C399.018 163.938 397.995 163.208 397.15 162.254C395.804 160.728 394.592 159.034 393.255 157.493C392.47 156.589 391.531 155.878 390.702 155.019C389.435 153.707 388.223 152.326 386.961 151.004C385.56 149.533 384.119 148.122 382.723 146.646C381.829 145.697 380.994 144.668 380.115 143.694C379.474 142.988 378.808 142.323 378.153 141.637C377.462 140.911 376.771 140.186 376.071 139.47C375.301 138.68 374.476 137.95 373.751 137.11C372.996 136.235 372.385 135.182 371.605 134.332C370.591 133.229 369.478 132.25 368.41 131.216C367.616 130.446 366.806 129.686 366.026 128.896C365.29 128.145 364.57 127.37 363.86 126.585C363.313 125.979 362.797 125.333 362.255 124.727C361.55 123.941 360.829 123.166 360.109 122.396C358.867 121.064 357.694 119.628 356.353 118.451C355.384 117.596 354.694 116.329 353.392 115.916C352.294 115.568 351.276 114.421 350.228 114.43C348.961 114.435 347.699 114.828 346.437 115.191C345.622 115.424 344.872 115.852 344.256 116.433C343.948 116.726 343.645 117.024 343.367 117.352C342.686 118.157 341.787 118.923 341.499 119.916C340.967 121.73 340.56 123.698 340.55 125.601C340.47 138.74 340.51 151.878 340.51 165.017C340.51 165.583 340.51 166.155 340.51 166.826H338.737C229.228 166.826 119.723 166.826 10.2142 166.826C9.57826 166.826 8.94733 166.836 8.31143 166.85C8.31143 166.85 0.00496798 166.826 0.00496798 174.105L0 174.12Z" fill="white"/>
<path d="M315.079 127.867H309.56V166.786H278.977V25.6013H309.56V104.79H313.902L334.534 68.858H369.548L339.417 113.024L374.526 166.786H339.69L315.079 127.867Z" fill="black"/>
<path d="M80.9383 240.022V275.492H56.9181V171.999H96.4284C108.699 171.999 118.437 175.124 125.635 181.38C132.834 187.637 136.436 195.861 136.436 206.047C136.436 216.234 132.834 224.448 125.635 230.675C118.432 236.906 108.699 240.022 96.4284 240.022H80.9383ZM80.9383 221.541H96.4284C101.64 221.541 105.619 220.11 108.366 217.243C111.114 214.376 112.49 210.694 112.49 206.192C112.49 201.689 111.129 197.828 108.401 194.892C105.679 191.955 101.685 190.484 96.4284 190.484H80.9383V221.546V221.541Z" fill="black"/>
<path d="M191.943 275.422C191.044 273.812 190.274 271.989 189.633 269.951C188.992 267.914 188.505 265.782 188.177 263.556C186.091 267.631 183.522 270.89 180.467 273.33C177.411 275.77 173.417 276.992 168.494 276.992C160.441 276.992 154.176 274.92 149.695 270.771C145.219 266.627 142.978 260.977 142.978 253.816C142.978 246.188 145.845 240.3 151.578 236.151C157.311 232.006 166.005 229.929 177.66 229.929H187.536V224.458C187.536 221.189 186.756 218.679 185.191 216.925C183.626 215.171 181.237 214.296 178.013 214.296C175.216 214.296 173.144 214.947 171.793 216.249C170.441 217.551 169.766 219.578 169.766 222.326L146.456 222.257L146.312 221.83C145.979 214.818 148.905 208.954 155.09 204.239C161.27 199.523 169.433 197.167 179.573 197.167C189.096 197.167 196.806 199.538 202.703 204.273C208.6 209.014 211.551 215.787 211.551 224.602V253.603C211.551 257.677 211.894 261.469 212.58 264.977C213.265 268.485 214.299 271.993 215.67 275.497L191.933 275.427L191.943 275.422ZM175.032 259.854C177.968 259.854 180.561 259.168 182.812 257.792C185.062 256.42 186.637 254.785 187.536 252.887V242.72H177.873C174.038 242.72 171.266 243.644 169.557 245.493C167.848 247.341 166.999 249.687 166.999 252.529C166.999 254.711 167.744 256.475 169.239 257.826C170.73 259.178 172.662 259.854 175.032 259.854Z" fill="black"/>
<path d="M264.783 253.881C264.783 251.988 263.705 250.293 261.549 248.797C259.393 247.307 255.473 245.965 249.79 244.782C240.838 243.028 234.086 240.315 229.535 236.643C224.99 232.97 222.714 227.912 222.714 221.467C222.714 214.689 225.556 208.944 231.244 204.229C236.928 199.513 244.628 197.158 254.341 197.158C264.575 197.158 272.722 199.443 278.788 204.015C284.854 208.587 287.74 214.5 287.457 221.75L287.313 222.177H264.003C264.003 219.146 263.243 216.845 261.728 215.28C260.213 213.715 257.724 212.935 254.266 212.935C251.752 212.935 249.646 213.62 247.942 214.997C246.238 216.373 245.383 218.123 245.383 220.259C245.383 222.396 246.367 224.026 248.334 225.447C250.302 226.868 254.266 228.15 260.238 229.283C269.667 231.132 276.627 233.895 281.133 237.562C285.634 241.234 287.884 246.437 287.884 253.165C287.884 259.894 284.814 265.782 278.684 270.259C272.548 274.736 264.436 276.978 254.346 276.978C244.256 276.978 235.596 274.324 229.511 269.017C223.425 263.71 220.519 257.787 220.807 251.247L220.951 250.82H242.696C242.79 254.467 243.893 257.101 245.999 258.711C248.106 260.321 251.101 261.126 254.991 261.126C258.211 261.126 260.65 260.5 262.309 259.243C263.969 257.985 264.798 256.196 264.798 253.876L264.783 253.881Z" fill="black"/>
<path d="M339.258 253.881C339.258 251.988 338.18 250.293 336.024 248.797C333.868 247.307 329.948 245.965 324.265 244.782C315.313 243.028 308.561 240.315 304.01 236.643C299.465 232.97 297.189 227.912 297.189 221.467C297.189 214.689 300.031 208.944 305.719 204.229C311.403 199.513 319.103 197.158 328.816 197.158C339.05 197.158 347.197 199.443 353.263 204.015C359.329 208.587 362.215 214.5 361.932 221.75L361.788 222.177H338.478C338.478 219.146 337.718 216.845 336.203 215.28C334.688 213.715 332.199 212.935 328.741 212.935C326.227 212.935 324.121 213.62 322.417 214.997C320.713 216.373 319.858 218.123 319.858 220.259C319.858 222.396 320.842 224.026 322.809 225.447C324.777 226.868 328.741 228.15 334.713 229.283C344.142 231.132 351.102 233.895 355.608 237.562C360.109 241.234 362.359 246.437 362.359 253.165C362.359 259.894 359.289 265.782 353.159 270.259C347.023 274.736 338.91 276.978 328.821 276.978C318.731 276.978 310.071 274.324 303.986 269.017C297.9 263.71 294.994 257.787 295.282 251.247L295.426 250.82H317.171C317.265 254.467 318.368 257.101 320.474 258.711C322.581 260.321 325.576 261.126 329.466 261.126C332.686 261.126 335.125 260.5 336.784 259.243C338.443 257.985 339.273 256.196 339.273 253.876L339.258 253.881Z" fill="black"/>
<path d="M378.654 198.122C378.426 198.097 378.207 198.057 377.989 197.997C376.886 197.709 376.011 197.033 375.534 196.089C374.879 194.807 375.231 193.54 376.632 191.985C375.172 192.293 373.92 192.362 372.986 192.114C371.923 191.826 371.098 191.194 370.661 190.34C370.085 189.212 369.886 188.809 374.387 184.615C371.575 185.599 369.111 186.096 367.541 185.674C366.473 185.386 365.643 184.749 365.206 183.89C364.356 182.22 365.127 181.659 369.389 178.548C371.595 176.938 376.657 173.241 379.057 170.87C375.698 171.889 369.454 174.98 363.666 178.593C363.06 178.97 362.29 179.085 361.56 178.896C360.834 178.712 360.228 178.25 359.92 177.639C359.473 176.759 358.589 175.025 364.605 169.583C362.404 170.503 360.129 171.472 357.988 172.416C356.85 172.918 355.439 172.56 354.738 171.591C354.038 170.622 354.272 169.365 355.285 168.694C360.665 165.116 366.667 160.549 368.738 158.269C365.931 158.716 359.364 162.199 353.601 166.418C353.005 166.85 352.205 167.014 351.44 166.84C350.675 166.672 350.034 166.199 349.706 165.563C349.348 164.858 349.06 164.296 350.411 162.607C349.81 162.642 349.234 162.612 348.687 162.507C346.854 162.169 345.399 161.106 344.594 159.521C343.009 156.405 347.361 152.867 354.729 147.416C354.858 147.322 354.987 147.227 355.116 147.128C353.094 147.972 350.506 149.354 347.828 151.038C346.184 152.241 344.544 153.334 343.108 154.254C342.04 154.939 340.52 154.736 339.676 153.801C338.831 152.862 338.96 151.53 339.974 150.78C340.903 150.089 342.487 148.956 344.405 147.724C345.612 146.83 346.745 145.935 347.758 145.08C342.776 147.376 338.121 148.986 335.865 148.36C334.916 148.092 334.181 147.52 333.794 146.755C333.341 145.871 333.59 144.847 334.41 144.231C337.311 142.044 340.391 139.485 342.736 137.299L331.603 141.443C330.539 141.841 329.283 141.522 328.582 140.683C327.882 139.843 327.926 138.705 328.686 137.95C331.955 134.695 335.428 131.162 337.837 128.622C335.438 129.795 332.606 131.51 331.19 132.369C327.38 134.675 326.098 135.45 324.498 135.033C323.778 134.844 323.087 134.312 322.779 133.711C322.352 132.871 322.551 131.907 323.281 131.281C326.794 128.27 330.609 124.632 332.79 122.172C330.236 123.216 326.595 125.084 323.232 127.142C322.119 127.822 320.564 127.564 319.754 126.565C318.949 125.566 319.193 124.205 320.305 123.524C325.939 120.08 333.396 116.16 336.933 117.074C337.986 117.347 338.806 117.969 339.238 118.823C339.596 119.529 340.133 120.582 337.713 123.753C339.616 123.067 341.265 122.823 342.701 123.196C343.913 123.514 344.867 124.255 345.394 125.283C346.005 126.486 346.228 126.913 339.686 133.626L348.007 130.526C348.608 130.302 349.294 130.302 349.91 130.521C350.531 130.739 351.027 131.167 351.301 131.703C351.743 132.573 352.751 134.556 345.856 140.911C348.365 139.739 351.067 138.372 353.516 137.03C354.127 136.697 354.878 136.618 355.573 136.817C356.269 137.015 356.845 137.463 357.143 138.054C357.749 139.242 357.56 140.598 356.845 142.029C357.898 141.86 358.877 141.845 359.736 142.029C361.237 142.357 362.414 143.222 363.05 144.469C363.999 146.333 362.608 147.366 357.988 150.785C355.643 152.524 350.332 156.455 349.358 158.144C349.428 158.194 349.497 158.204 349.567 158.219C351.927 158.641 358.37 154.875 363.442 150.775C363.83 150.452 364.232 150.119 364.64 149.781C365.618 148.971 367.183 149.026 368.147 149.906C369.106 150.785 369.101 152.162 368.137 152.986C367.884 153.205 367.506 153.523 367.024 153.916C366.885 154.03 366.746 154.149 366.607 154.263C368.147 153.881 369.568 153.757 370.77 154.02C372.28 154.353 373.458 155.223 374.094 156.47C374.511 157.285 375.137 158.517 371.848 161.866C376.28 160.341 377.079 160.604 377.691 160.803C378.341 161.017 378.972 161.523 379.255 162.08C379.717 162.989 379.439 164.043 378.575 164.649C377.129 165.663 375.639 166.751 374.198 167.849C377.407 166.567 380.393 165.807 382.341 166.309C383.543 166.612 384.477 167.318 384.974 168.292C386.191 170.677 384.01 173.3 377.238 178.493C380.199 177.107 383.597 175.343 386.926 173.415C387.979 172.808 389.41 173.007 390.235 173.887C391.059 174.766 391.015 176.029 390.13 176.814C386.842 179.731 382.664 183.482 379.529 186.35C383.329 184.774 388.392 182.225 392.744 179.726C393.35 179.378 394.11 179.283 394.82 179.477C395.531 179.671 396.112 180.128 396.415 180.724C397.428 182.717 396.012 183.666 390.046 187.656C388.898 188.427 387.279 189.51 385.679 190.633C386.524 190.136 387.328 189.649 388.019 189.232C393.747 185.773 396.857 183.994 399.406 184.665C400.394 184.923 401.169 185.525 401.596 186.359C402.163 187.473 401.611 188.755 400.359 189.222C399.565 189.52 398.68 189.416 397.995 189.013C396.47 189.51 393.181 191.498 390.92 192.864C385.272 196.273 381.526 198.425 378.634 198.102L378.654 198.122Z" fill="white"/>
</g>
<defs>
<clipPath id="clip0_676_229">
<rect width="460" height="354" fill="white"/>
</clipPath>
</defs>
</svg>
